<?xml version="1.0" encoding="utf-8"?>
<!-- Generator: Adobe Illustrator 27.6.1, SVG Export Plug-In . SVG Version: 6.00 Build 0)  -->
<svg version="1.1" id="图层_1" xmlns="http://www.w3.org/2000/svg" xmlns:xlink="http://www.w3.org/1999/xlink" x="0px" y="0px"
	 viewBox="0 0 794 143" style="enable-background:new 0 0 794 143;" xml:space="preserve">
<style type="text/css">
	.st0{fill:#E8362D;}
</style>
<g>
	<g>
		<path class="st0" d="M47.1,106.3c0,5.5-4.5,10-10,10c-5.5,0-10-4.5-10-10c0-5.5,4.5-10,10-10C42.6,96.3,47.1,100.8,47.1,106.3"/>
		<path class="st0" d="M134.8,95.9C128.4,50.2,92.1,14,46.5,7.5c-5.3,2.8-10.2,6.4-14.6,10.5v9.7c45.6,0,82.6,37.1,82.6,82.6h9.7
			C128.4,106.1,132,101.2,134.8,95.9"/>
		<path class="st0" d="M142.3,65.4C142.3,29.3,113.1,0,77,0c-2.3,0-4.5,0.1-6.7,0.4l-1.5,4.3c32.1,11.2,57.6,36.7,68.9,68.8L142,72
			C142.2,69.8,142.3,67.6,142.3,65.4"/>
		<path class="st0" d="M77.7,143c-20.8,0-40.3-8.1-54.9-22.8C8.1,105.6,0,86.1,0,65.3C0,44.5,8.1,25,22.8,10.3l4.1,4.2
			c-13.6,13.6-21,31.6-21,50.8s7.5,37.2,21,50.8c13.6,13.6,31.6,21,50.8,21c19.2,0,37.2-7.5,50.8-21l4.2,4.1
			C118,134.9,98.5,143,77.7,143"/>
		<path class="st0" d="M76.9,114.9c1.6-16.2-5.6-31.3-17.7-40.5c-6.4-4.8-14.2-8.1-22.7-8.9c-2.2-0.2-3.9-2.2-3.6-4.4
			c0.3-2.4,2.3-3.9,4.4-3.6c9.3,0.9,17.8,4.2,24.9,9.2c15.4,10.7,24.8,29.2,22.8,49.1c-0.3,3.2-0.9,6.2-1.8,9.2l11.8,3.3
			c3.5-1,7-2.3,10.2-3.8c0.8-4.5,1.3-9.2,1.3-14c0-37.4-27.6-68.4-63.6-73.7c-4.3-0.6-8.7-0.7-11.9,0.1c-5.1,1.3-9.5,4.1-12.9,7.9
			c-4,4.5-6.3,10.4-6.3,16.8c0,11.4,7.4,21,17.7,24.3c1.9,0.6,4.9,0.9,6.4,1.1H36c11.2,1.9,19.8,11.8,19.8,23.5
			c0,4.7-1.4,9.1-3.8,12.9l8.2,5.2c3.9,1,8,1.7,12.2,2C74.7,125.8,76.3,120.5,76.9,114.9"/>
		<rect x="708" y="21.6" width="15" height="99.9"/>
		<path d="M464.8,79.7c1.7-0.8,3.3-1.8,4.6-3.1c3.2-3.1,5.3-7.6,5.3-13.3V39.5c0-5.7-2.1-10.2-5.3-13.3c-3.2-3.1-7.8-4.8-12.1-4.8
			L414,21.6v100h15V81.4h15.5c3.9,0.2,11.2,1.8,13.4,11.8l5.9,28.4l16.4-0.1L474,94.8C472.1,86.3,469.1,81.9,464.8,79.7 M429,35.6
			v-0.1h25.8c3.1,0,4.8,2.7,4.8,5.7v20.5c0,3-1.7,5.7-4.8,5.7H429V35.6z"/>
		<path d="M197.7,26.3c-3.2,3.1-5.3,7.6-5.3,13.3v63.9c0,5.7,2.1,10.2,5.3,13.3c3.2,3.1,7.8,4.8,12.1,4.8h40.5v-14h-38.1
			c-3.1,0-4.8-2.7-4.8-5.7V76.1h37.5v-14h-37.5V41.3c0-3,1.7-5.7,4.8-5.7h38.1v-14h-40.5C205.6,21.6,200.9,23.2,197.7,26.3"/>
		<path d="M755.9,35.6H794v-14h-40.5c-4.2,0-8.9,1.7-12.1,4.8c-3.2,3.1-5.3,7.6-5.3,13.3v81.6h15V76.1h37.5v-14h-37.5V41.3
			C751.1,38.3,752.8,35.6,755.9,35.6"/>
		<path d="M307.2,62.1h-23.3c-3,0-5.4-2.4-5.4-5.4V41.3c0-3,1.7-5.7,4.8-5.7h37.4v-14h-39.9c-4.2,0-8.9,1.7-12.1,4.8
			c-3.2,3.1-5.3,7.6-5.3,13.3v20.7c0,9.7,7.9,17.6,17.6,17.6h23.3c3,0,5.4,2.4,5.4,5.4v18.5c0,3-1.7,5.7-4.8,5.7h-41.4v14h43.9
			c4.2,0,8.9-1.7,12.1-4.8c3.2-3.1,5.3-7.6,5.3-13.3V79.7C324.8,70,316.9,62.1,307.2,62.1"/>
		<path d="M493.7,26.3c-3.2,3.1-5.3,7.6-5.3,13.3v63.9c0,5.7,2.1,10.2,5.3,13.3c3.2,3.1,7.8,4.8,12.1,4.8h40.5v-14h-38.1
			c-3.1,0-4.8-2.7-4.8-5.7V76.1h37.5v-14h-37.5V41.3c0-3,1.7-5.7,4.8-5.7h38.1v-14h-40.5C501.6,21.6,496.9,23.2,493.7,26.3"/>
		<path d="M603.2,62.1h-23.3c-3,0-5.4-2.4-5.4-5.4V41.3c0-3,1.7-5.7,4.8-5.7h37.4v-14h-39.9c-4.2,0-8.9,1.7-12.1,4.8
			c-3.2,3.1-5.3,7.6-5.3,13.3v20.7c0,9.7,7.9,17.6,17.6,17.6h23.3c3,0,5.4,2.4,5.4,5.4v18.5c0,3-1.7,5.7-4.8,5.7h-41.4v14h43.9
			c4.2,0,8.9-1.7,12.1-4.8c3.2-3.1,5.3-7.6,5.3-13.3V79.7C620.8,70,612.9,62.1,603.2,62.1"/>
		<path d="M676.9,62.1h-23.3c-3,0-5.4-2.4-5.4-5.4V41.3c0-3,1.7-5.7,4.8-5.7h37.4v-14h-39.9c-4.2,0-8.9,1.7-12.1,4.8
			c-3.2,3.1-5.3,7.6-5.3,13.3v20.7c0,9.7,7.9,17.6,17.6,17.6h23.3c3,0,5.4,2.4,5.4,5.4v18.5c0,3-1.7,5.7-4.8,5.7h-41.4v14h43.9
			c4.2,0,8.9-1.7,12.1-4.8c3.2-3.1,5.3-7.6,5.3-13.3V79.7C694.5,70,686.6,62.1,676.9,62.1"/>
		<path d="M383.8,21.5l-45.5,0.1v100h15V82.7h30.4c4.2,0,8.9-1.7,12.1-4.8c3.2-3.1,5.3-7.6,5.3-13.3V39.5c0-5.7-2.1-10.2-5.3-13.3
			C392.7,23.1,388,21.5,383.8,21.5 M386.2,63c0,3-1.7,5.7-4.8,5.7h-28V35.6v-0.1h28c3.1,0,4.8,2.7,4.8,5.7V63z"/>
	</g>
</g>
</svg>
